<?xml version="1.0" encoding="UTF-8"?>
<svg id="Layer_2" data-name="Layer 2" xmlns="http://www.w3.org/2000/svg" viewBox="0 0 472.49 444.72">
  <defs>
    <style>
      .cls-1 {
        stroke-width: 0px;
      }
    </style>
  </defs>
  <g id="katman_1" data-name="katman 1">
    <g>
      <path class="cls-1" d="m350.16,92.22c8.85-5.18,17.97-9.79,27.42-13.78,7.52-3.17,15.23-5.74,23.11-7.81,3.21-.84,6.23-.52,8.9,1.71,2.37,1.98,3.81,4.4,3.45,7.54-.45,3.93.37,7.57,2.05,11.08,1.73,3.62,1.61,7.39.76,11.19-1.87,8.34-5.69,15.78-10.52,22.75-3.75,5.41-7.98,10.44-12.14,15.53-.75.91-1.43,1.87-2.15,2.81-.4.4-1.33.71-.67,1.39.49.5,1.12-.16,1.65-.44,9.84-4.28,20.24-5.59,30.85-5.67,9.75-.08,19.49.07,29.2,1,1.69.16,3.38.58,4.99,1.12,3.06,1.03,4.32,2.69,4.3,5.84-.02,3.03-.06,6.02.36,9.04.36,2.57-1.08,4.82-2.45,6.94-8.39,12.98-18.79,24.07-31.54,32.84-5.09,3.5-10.46,6.6-15.7,9.89-.73.46-1.62.74-2.07,1.52.55.63,1.08.5,1.56.47,16.5-1.34,32.54,1.51,48.47,5.32,2.95.71,5.81,1.71,8.47,3.19,4.12,2.29,4.85,4.29,3.21,8.76-.73,2-1.26,3.99-.98,6.16.76,5.74-1.3,10.62-4.83,14.96-4.38,5.4-9.74,9.62-16.02,12.59-3.32,1.57-6.76,2.91-10.18,4.27-5.5,2.18-11,4.35-16.32,6.95-5.8,2.84-11.71,5.39-18.01,6.92-.72.17-1.58.15-2.02.98.21,1.17,1.19.79,1.87.86,8.01.8,16.03,1,24.07.39,3.68-.28,7.37-.33,11.04.18,1.05.14,2.27.36,2.58,1.5.4,1.45-.87,2.1-1.89,2.66-4.31,2.36-9.03,3.59-13.76,4.73-8.73,2.12-17.54,3.59-26.57,3.21-.57-.02-1.31-.34-1.75.44.17,1.11,1.22,1.29,1.93,1.73,7.99,4.98,15.1,11.02,21.51,17.88,6.3,6.73,12.91,13.18,18.55,20.5,1.69,2.19,3.38,4.38,4.57,6.9,3.02,6.43.43,10.96-6.66,11.55-3.04.25-6.05-.38-9.03-.83-3.31-.49-6.52-.54-9.79.25-14.53,3.51-28.48,1.33-42.03-4.46-2.66-1.14-5.3-2.33-7.95-3.47-.57-.25-1.26-.66-1.75.04-.44.62-.05,1.24.3,1.79.64,1,1.28,1.99,1.95,2.97,8.84,13.01,15.31,27.3,22.17,41.37.74,1.53,1.31,3.17,1.73,4.82,1.12,4.38-.53,6.47-5.09,6.72-2.41.13-4.74-.38-7.01-1.02-4.74-1.33-9.57-1.7-14.44-1.95-21.3-1.1-39.96-8.49-55.49-23.35-1.07-1.03-2.2-3.3-3.58-2.44-1.78,1.11.07,3.04.54,4.52,5.18,16.54,5.69,33.08.43,49.71-1.03,3.26-1.77,6.61-2.7,9.9-1.12,3.96-2.95,5.19-6.97,4.65-6.09-.82-11.72-2.9-16.82-6.37-6.59-4.48-12.45-9.76-17.2-16.16-4.78-6.45-9.42-13.01-13.98-19.62-3.07-4.45-5.53-9.26-7.49-14.32-.32-.83-.44-1.79-1.32-2.32-.71,1.02-.76,2.23-1.05,3.37-4.03,15.85-10.21,30.71-20.26,43.76-4.3,5.58-9.37,10.36-15.42,14-10.3,6.2-18.82,3.69-23.96-7.21-3.52-7.46-5.29-15.49-5.89-23.65-1.16-15.67-.92-31.3,2.8-46.7.16-.64.37-1.27-.31-1.75,0,0-.12-.07-.12-.07.88.36.77-.47,1.04-.85,1.14-1.38,1.6-3.07,2.15-4.73.93-.91,1.38-1.98,1.3-3.56-.87.92-1.45,1.61-1.4,2.61-1.56,1.96-3.03,3.97-3.84,6.38-4.73,6.64-9.25,13.44-14.55,19.67-1.63,1.92-3.44,3.64-5.36,5.24-6.29,5.23-13.02,9.89-20.17,13.8-8.86,4.84-18.39,6.16-28.28,3.37-5.75-1.62-8.56-4.77-8.53-10.78.06-15.85,2.07-31.27,11.74-44.64.31-.43.63-.86.81-1.34.12-.32.1-.8-.06-1.08-.32-.54-.89-.48-1.37-.21-.8.45-1.58.94-2.35,1.45-4.97,3.23-10.11,6.17-15.49,8.66-11.55,5.35-23.27,6.19-35.2,1.28-2.8-1.15-5.67-2.15-8.38-3.46-4.1-1.98-4.81-4.1-2.98-8.31,1.43-3.29,3.58-6.13,5.9-8.84,4.29-5.01,9.03-9.59,13.79-14.14,4.96-4.74,9.65-9.71,14.09-14.94,4.1-4.82,8.3-9.54,13.05-13.74.48-.42,1.03-.83,1.11-1.56-.26-.27-.5-.53-.97-.39-13.63,4.32-27.32,3.25-40.94.11-11.28-2.6-22.29-6.2-33.18-10.14-2.35-.85-4.69-1.78-6.72-3.29-3.99-2.96-3.75-6.18.62-8.51,1.98-1.05,4.08-1.85,6.28-2.3,5.56-1.14,10.3-3.83,14.63-7.41,3.45-2.85,7.01-5.57,10.55-8.31,13.31-10.34,28.57-14.84,45.24-15.09,1.19-.02,2.37-.01,3.56-.02,3.93.33,7.85.15,12.66-.15-4.11-1.1-7.38-1.68-10.76-1.43-20.23-2.46-38.35-10.66-55.98-20.33-15.11-8.3-27.01-19.95-36.72-34.02-1.72-2.49-3.36-5.04-4.08-8.05-1.06-4.41.76-7.75,5.22-8.49,4.07-.68,7.88-1.76,11.59-3.6,3.27-1.62,6.93-1.24,10.49-.94,10.67.91,21.01,3.46,31.3,6.24,8.9,2.41,17.58,5.43,25.87,9.51.47.23.94.47,1.43.67.47.18,1.02.45,1.4-.12.34-.51.11-1.02-.3-1.36-.7-.59-1.45-1.13-2.2-1.66-21.92-15.53-35.67-36.84-43.85-62.07-1.55-4.78-2.58-9.66-2.2-14.74.49-6.49,3.65-9.47,10.1-9.58,4.69-.08,9.14.87,13.38,2.86,3.46,1.63,6.81,3.45,9.99,5.56,13.82,9.17,27.38,18.71,40.69,28.6,1.22,1.35,2.49,2.63,4.54,3.09-.31-1.56-1.53-2.1-2.05-3.13-6.1-8.81-11.5-17.97-13.67-28.65-2.64-12.99-3.9-26.03-1.23-39.19.84-4.16,2.17-8.14,4.51-11.71,3.48-5.32,7.44-6.4,13.17-3.6,2.75,1.34,5.07,3.28,7.26,5.39,4.4,4.22,7.98,9.1,11.4,14.1,4.68,6.84,9.27,13.74,13.94,20.59.71,1.04,1.13,2.38,2.52,2.91.61-1.2.14-2.36.09-3.49-.71-17.36,1.26-34.43,5.75-51.2.85-3.17,2.09-6.22,4.01-8.96,2.37-3.38,5.5-5.3,9.68-5.04,4.08.25,7.71-.49,11.12-3.03,3-2.24,6.27-1.42,9.16.68,2.04,1.48,3.8,3.32,5.17,5.4,11.65,17.8,21.86,36.28,26.81,57.22.79,3.33,1.29,6.72,1.97,10.07.25,1.25.2,2.63,1.28,3.81,1.17-4.19,1.01-8.42,1.68-12.54,2.13-13.12,4.59-26.14,8.67-38.83,4.41-13.71,13.03-24.51,23.03-34.42.47-.46.99-.86,1.52-1.26,4.1-3.07,6.43-2.79,9.77,1.15.09.1.2.19.25.3,2.37,4.54,5.84,6.66,11.18,5.93,3.12-.42,5.39,1.82,7.26,4.11,2.87,3.51,4.79,7.56,6.15,11.85,2.91,9.21,4.5,18.67,4.9,28.32.19,4.47.15,8.95.22,13.43.01.92,0,1.85.1,2.76.04.33.2.72.68.87.6.19,1.02,0,1.33-.46.38-.54.72-1.1,1.03-1.68,7.31-13.47,18.51-22.72,32-29.49,4.35-2.19,8.85-4.05,13.44-5.66,5.29-1.86,7.52-.46,8.59,5.11.67,3.46.18,6.88-.73,10.16-2.5,9.02-4.47,18.13-5.68,27.41-.69,5.28-2.82,10.11-4.72,15.01-.29.42-.59.89-.12,1.3.14.12.63-.17.95-.27Zm-46.27,166.22c1.31.95,2.75,1.45,4.53,1.07-1.21-.63-2.42-1.25-3.64-1.88-1.22-.75-2.43-1.53-3.67-2.25-.71-.41-1.23-.07-1.58.58-.38.73.28.93.69,1.1,1.2.5,2.44.92,3.67,1.37Zm-213.45-79.85c2.43,1.98,5.3,3.13,8.15,4.32-2.27-1.91-4.52-3.82-7.2-5.1-.5-.3-1.03-1-1.58-.27-.38.5.17.84.63,1.05Zm203.13,109.89c2.17,2.1,4.54,3.9,7.52,4.76-2.19-1.86-4.38-3.72-6.57-5.58-3.32-3.68-7.03-7.01-9.72-11.23-1.6-2.52-1.65-2.49-4.93-.76,4.34,4.59,8.65,9.08,13.7,12.81ZM6.91,175.99c-.33-.5-.94-1.17-1.32-.79-.53.52.26,1.01.67,1.42,1.57,3.37,3.92,6.23,6.13,9.17,7.9,10.48,16.63,20.05,28.34,26.51,17.07,9.42,35.07,16.26,54.26,19.79,4.08.75,8.16,1.89,12.41,1.48-1.75-.56-3.52-.96-5.3-1.33-13.36-2.73-26.16-6.95-37.94-14-4.29-2.56-8.64-5.08-13.17-7.18-14.36-6.68-26.5-16.08-36.32-28.51-2.12-2.69-4.59-5.07-7.76-6.57Zm407.01,72.15c-3.02,1.66-6.46,1.93-9.71,2.76-12.8,3.24-25.8,5.26-39.04,4.85-12.37-.38-24.63-2.1-36.84-4.06-8.38-1.35-16.79-2.51-25.03-5-.49,1.58-.86,2.83-1.27,4.07-1,3.02-1.02,3.03,1.88,4.69,7.09,4.07,14.52,7.41,22.21,10.18,20.62,7.42,42.05,9.19,63.75,8.86,10.52-.16,20.6-2.48,30.28-6.57,6.42-2.71,12.91-5.26,19.25-8.14,8.8-4,16.97-9.01,23.73-16.05,3.09-3.23,5.49-6.83,5.26-11.51-.16-3.2-.07-6.31,1.17-9.3.68-1.64.03-2.8-1.36-3.66-1.92-1.19-4.04-1.97-6.19-2.53-10.45-2.73-21.05-4.71-31.8-5.75-14.28-1.38-28.07.91-41.46,5.86-14.07,5.2-28.27,9.96-42.65,14.24-5.8,1.73-11.64,3.41-17.73,3.61-7.1.23-14.21-.06-21.31.51-3.01.24-3.2.15-3.81,3.14-.18.89-.19,1.83-.15,2.74.14,3.33.16,3.33,3.36,4.08,10.51,2.44,21.16,4.15,31.84,5.63,17.98,2.48,35.94,2.31,53.93.06,6.39-.8,12.62-2.58,19.07-2.94.89-.15,1.77-.14,2.62.24ZM181.45,79.87c-.16.54.27.6.6.75.08,7.77.62,15.51,1.71,23.19,2.23,15.64,5.06,31.12,10.92,45.93,3.99,10.07,8.94,19.64,14.18,29.08,1.39,2.5,2.73,5.02,4.38,8.06.92-2.63,2.35-4.07,4.28-5.03,2.45-1.22,4.23.15,5.62,1.45,4.66-2.01,4.46-6.02,4.71-9.75.41-6.17.5-12.37,1.02-18.54,2.37-27.92-2.04-55.21-8.18-82.23-3.97-17.45-11.98-33.4-20.83-48.87-1.7-2.97-3.88-5.64-6.5-7.9-3.16-2.72-5.06-2.95-8.45-.55-3.09,2.18-6.38,3-10.07,2.47-.78-.11-1.57-.15-2.36-.22-3.04-.29-5.35.9-7.12,3.35-1.89,2.62-2.96,5.57-3.7,8.66-3.84,16.1-4.52,32.57-5.41,49-.35,6.43,1.14,12.3,5.06,17.78,7.49,10.49,12.43,22.25,15.54,34.77,2.63,10.6,5.2,21.21,9.29,31.39,3.85,9.6,9.84,18.27,12.18,28.89,3.58-2.49,5.97-6.03,10.33-6.75-.47-.89-.69-1.36-.97-1.8-8.77-13.81-14.48-28.9-18.55-44.67-3.19-12.37-5.26-24.96-6.72-37.62-.8-6.9-1.56-13.85-.95-20.84Zm-2.25,166.08c-2.12,1.6-2.93,3.59-2.18,6.16.63,2.14,1.76,4.26,1.85,6.41.17,4.35,2.66,6.72,6.15,8.39,2.34,1.12,4.24,2.62,5.51,4.88,1.16,2.08,2.95,3.4,5.21,3.87,4.38.91,7.97,3.26,11.53,5.79,3.61,2.56,7.58,4.11,12.16,3.93,3.55-.13,7.17-.36,10.64.22,3.8.64,7.29.21,10.84-.95,4.38-1.44,8.86-2.44,13.5-2.53,2.96-.05,5.82-.81,8.2-2.48,5.69-3.98,12.01-6.45,18.55-8.51,2.77-.87,5.54-1.94,7.57-4.09,5.89-6.25,10.2-13.39,11.22-22.1.36-3.13.37-6.33-.96-9.33-.31-.7-.62-1.57-1.56-1.58-.97,0-1.12.89-1.48,1.58-1.02,1.99-.34,4.49-2.02,6.55-1.84-2.57-.07-4.96-.03-7.3.02-1.26.74-2.51,1.82-3.39,1.12-.92,2.18-.33,3.33-.01,1.56.43,1.87-.64,1.53-1.83-.58-2.01-1.07-4.12-2.51-5.73-.64-.72-.96-1.37-1.11-2.36-.43-2.85-1.08-5.67-1.7-8.49-.71-3.24-2.51-5.77-5.23-7.61-2.4-1.63-4.63-3.39-6.38-5.78-1-1.35-2.27-2.68-3.72-3.47-2.86-1.56-5.06-3.67-7.01-6.22-1.25-1.64-3.08-2.85-5.16-1.72-2.84,1.53-5,.65-7.13-1.26-1.34-1.21-2.99-1.89-4.74-1.3-1.82.62-3-.12-4.22-1.25-3.19-2.95-6.82-3.61-10.98-2.27-1.29.42-2.85,1.29-4.17.37-2-1.39-3.67-.51-5.54.21-1.88.71-3.5,1.36-4.52,3.41-1.53,3.06-2.09,3.01-4.51.69-3.18-3.06-4.5-2.88-6.51.87-1.73,3.23-2.05,3.31-4.92,1.22-2.94-2.13-3.93-2.11-6.45.35-1.03,1-1.99,2.11-2.8,3.3-1.07,1.57-2.34,2.88-4.12,3.55-3.8,1.43-5.85,4.25-6.88,8.05-.73,2.67-.96,5.65-4.92,5.92-1.47.1-2.52,1.8-3.27,3.23-.73,1.4-1.54,2.78-2.04,4.27-1.37,4.07-2.91,8.13-2.38,12.64,5.59-1.73,9.07,2.34,7.87,8.23-1.34-.97-1.51-2.51-2.27-3.65-1.3-1.95-2.26-2.21-4.27-1.08-2.64,1.48-3.67,4.38-3.03,8.32.22,1.34.71,2.26,2.25,2.11,2.49-.24,3.5,1.3,4.16,3.36.28.87.71,1.7,1.09,2.54.44.98,1.12,1.21,2.22,1.08,3.13-.35,4.6.7,5.09,3.76.43,2.72.58,5.48.78,8.23.05.67.45,1.64-1.07,1.9-.62-2.78-1.25-5.56-1.87-8.34-.41-1.84-1.26-3.23-3.41-3.1-1.95.11-2.74-1.12-3.5-2.62-.81-1.61-.76-3.63-2.49-5.03ZM251.55,51.72c-1.49,4.67-3.25,9.19-4.62,13.84-4.79,16.15-8.15,32.67-12.59,48.92-.86,3.16-1.6,6.38-1.49,9.72.53,15.71-.71,31.3-3.06,46.83-.44,2.92-1.3,5.83-1.04,8.88,1.59.04,2.54-1.01,3.7-1.56.99-.48,2.14-.96,2.99-.25,1.87,1.54,3.66.93,5.54.24,1.28-.47,2.59-.48,3.88-.06,1.26.41,1.92,0,2.35-1.27.85-2.49,1.98-4.89,2.75-7.4,5.87-19.12,11.31-38.37,15.22-58.01,3.34-16.79,5.85-33.7,5.67-50.9,0-.29.18-.57.34-1.02.63,1.46.32,2.79.38,4.09.48,11.35-.81,22.61-1.75,33.88-1.09,13.03-3.42,25.81-7.62,38.24-3.08,9.1-5.81,18.31-7.98,27.67-1.28,5.52-2.84,10.94-5.53,16.09,2.62,2.22,4.86,4.98,8.9,3.73.55-.17,1.34.06,1.91.34,2.15,1.06,3.29.08,4.48-1.69,4.48-6.68,8.35-13.72,12.52-20.58,2.54-4.18,4.53-8.6,6.19-13.2,6.8-18.88,11.69-38.25,14.75-58.07,2.59-16.76,3.04-33.57.13-50.35-1.33-7.67-3.19-15.19-7-22.11-2.12-3.85-4.78-6.52-9.61-6.2-2.8.19-5.07-1.07-6.83-3.31-1.06-1.34-2.18-2.65-3.39-3.85-1.78-1.76-2.77-1.83-4.81-.29-1.25.95-2.39,2.07-3.46,3.22-17.66,19.03-27.16,41.65-29.8,67.36-.77,7.48-.64,14.99-1.23,22.48-.43,5.42-.94,10.94,1.15,17.2,4.07-22.17,8.71-43.29,18.95-62.61Zm99.51,68.48c-1.52,1.75-3,3.54-4.58,5.24-14,15.06-27.35,30.66-39.16,47.52-5.99,8.55-12.12,16.94-20.93,22.9-.11.07-.21.16-.32.23-.99.62-.93,1.31-.4,2.3,1.5,2.78,4.28,3.76,6.79,5.16,1.19.66,2.1.61,3.21-.16,3.48-2.42,7.38-4.07,11.27-5.66,11.24-4.57,21.96-10.19,32.67-15.83,7.14-3.76,13.78-8.24,19.97-13.39,15.78-13.13,29.41-28.27,41.57-44.76,5.04-6.84,8.78-14.35,11.1-22.56,1.05-3.7,1.03-7.2-.65-10.75-1.69-3.58-2.74-7.22-2.07-11.43.66-4.13-2.64-6.95-6.79-6.6-1.86.16-3.57.84-5.32,1.44-11.35,3.9-22.23,8.9-32.98,14.16-12.96,6.34-24.82,14.3-35.61,23.94-15.08,13.46-24.6,30.34-31.23,49.11-1.67,4.72-3.44,9.39-5.52,13.94-2.52,5.53-6.22,10.03-11.24,13.48-1.01.69-2.27,1.18-2.95,2.46.86.73,1.62,1.27,2.23,1.94,1.43,1.54,2.65,1.4,4.31.1,4.89-3.84,9.6-7.83,13.38-12.8,8.54-11.22,17.55-22.05,26.91-32.59,8.39-9.44,16.81-18.85,26.33-27.4Zm53.83,63.69c.05,1.03-.4,1.37-.75,1.71-.75.74-1.52,1.46-2.33,2.12-6.3,5.08-13.35,8.93-20.75,12.09-11.55,4.93-23.68,7.96-35.96,10.35-13.32,2.59-26.55,5.45-39.14,10.7-4.18,1.74-4.19,1.67-2.7,5.75.4,1.1.62,2.28.91,3.42.23.91.68,1.38,1.69,1.02.87-.31,1.75-.57,2.63-.84,7.8-2.43,15.7-4.29,23.87-5.18,7.32-.8,14.67-1.35,21.94-2.64,8.07-1.43,15.68-4.48,23.54-6.61,20.28-5.5,38.13-15.66,54.8-28.14,6.05-4.53,11.37-9.81,15.85-15.89,2.34-3.18,4.42-6.55,6.76-9.72,2.41-3.28,4.16-6.66,3.52-10.93-.19-1.26.21-2.61.35-3.92.35-3.3-.44-4.68-3.63-5.48-2.54-.64-5.14-1.07-7.8-1.03-11.07.15-22.07,1.36-33.09,2.25-11.48.93-22.12,4.53-32.11,10.16-1.16.66-2.2,1.44-3.13,2.38-8.9,9.07-18.97,16.7-29.62,23.55-14.63,9.41-29.58,18.24-45.98,24.32-2.45.91-4.86,1.91-7.58,2.98,1.77,2.81,2.29,5.72,2.42,8.75.04.91.39,1.8.51,2.71.25,1.86,1.2,2.08,2.75,1.33,1.18-.57,2.45-.95,3.67-1.44,10.41-4.18,21.11-7.34,32.17-9.28,8.03-1.41,16.05-2.95,24.04-4.56,15.84-3.2,30.45-9.12,43.16-19.92Zm-221.02,22.82c-3.8-3.76-7.54-6.9-10.54-10.78-13.79-17.81-28.63-34.76-43.01-52.08-8.81-10.61-18.97-19.75-30.72-27.02-10.08-6.23-20.12-12.5-29.92-19.17-2.82-1.92-5.87-3.51-8.92-5.07-3.94-2.02-8.2-2.8-12.62-2.61-3.69.15-5.53,1.84-5.84,5.55-.23,2.76-.25,5.53.45,8.25,5.18,20.15,14.55,38.1,28.91,53.18,11.4,11.97,24.49,21.98,38.48,30.75,14.77,9.26,30.63,16.34,46.63,23.12,5.56,2.36,11.29,4.35,17.15,5.9,2.7.71,2.77.7,3.69-1.81,1.21-3.28,2.83-6.22,6.27-8.23Zm58.51,140.9c.28-6.38-.72-12.61-2.04-18.8-1.45-6.82-2.96-13.64-3.27-20.63-.24-5.26-.22-10.52-.41-15.78-.12-3.23-.21-3.16-3.3-3.26-5.65-.2-11.33.31-16.94-.52-2.02-.3-2.19.93-2.35,2.26-1.27,10.02-5.4,18.9-10.77,27.29-3.55,5.55-6.8,11.28-8.88,17.57-2.36,7.13-5.19,14.07-8.33,20.87-2.84,6.14-4.8,12.51-5.89,19.17-1.59,9.77-2.65,19.58-1.17,29.45,1.31,8.72,3.43,17.28,6.19,25.66.66,2.01,1.54,3.92,2.62,5.73,4,6.71,8.98,7.89,15.55,3.7,2.56-1.64,4.82-3.65,7.01-5.75,10.69-10.2,17.84-22.66,23.21-36.27,6.43-16.29,7.87-33.44,8.79-50.68Zm22.51-66.15c-6.72,1.96-5.95,1.14-4.12,7.04.54,1.75,1.26,3.49,2.16,5.08,2.98,5.28,5.32,10.87,7.77,16.4,4.56,10.29,10.57,19.71,17.48,28.55,6.89,8.82,13.85,17.57,20.83,26.31,4.38,5.49,9.54,10.13,15.43,14,8.36,5.48,17.67,8.67,27.11,11.6,5.71,1.77,11.51,2.74,17.5,2.44,5.18-.26,10.23.38,15.19,1.95,1.87.59,3.78,1.15,5.79,1.15,2.64,0,3.31-.72,2.79-3.34-.59-3-1.95-5.73-3.41-8.38-8-14.53-16.14-29-26.09-42.31-10.21-13.66-22.55-25-37.86-32.82-5.5-2.81-11.09-5.46-16.73-7.98-10.84-4.85-20.36-11.5-28.39-20.27-1.3-1.42-2.03-3.97-4.01-4.03-1.96-.07-3.97,1.18-5.95,1.87-.5.17-.98.38-1.46.6-2.58,1.22-2.61,1.24-1.4,3.73,1.32,2.72,2.73,5.4,4.06,8.12,6.25,12.73,14.13,24.32,23.78,34.74,11.15,12.03,23.6,22.52,37.03,31.89,2.01,1.41,4.15,2.67,6.22,4.81-1.88-.07-2.8-1.08-3.85-1.74-15.46-9.56-28.64-21.82-41.26-34.77-12.56-12.87-22.91-27.12-28.61-44.64Zm-20.46,5.5c-1.23.37-2.09.68-2.97.87-1.86.4-2.5,1.29-2.1,3.33.47,2.44.44,4.97.6,7.46.44,6.7.85,13.4,1.96,20.03,2.81,16.81,3.97,33.71,2.54,50.73-.19,2.32.21,4.39,1.05,6.52,3.19,8.1,7.38,15.71,11.31,23.46,7.14,14.08,18.09,24.45,31.08,32.9,3.76,2.44,7.8,4.42,12.34,5.03,3.57.49,4.71-.25,5.16-3.67.73-5.5,2.25-10.8,3.68-16.14,3.54-13.15,3.3-26.23-.71-39.3-3.63-11.83-9.97-22.03-18.07-31.19-8.64-9.76-15.42-20.63-20.41-32.66-2.07-4.99-4.48-9.84-7.54-14.3-2.79-4.06-4.89-8.39-6.17-13.15-.79-2.93-.87-2.92-3.69-2.43-.65.11-1.27.36-1.92.44-2.03.27-2.92,1.23-2.71,3.43.44,4.72.52,9.47,1.02,14.17,1.24,11.53,3.65,22.86,6.09,34.17,4.34,20.07,10.96,39.26,22.19,56.64.27.42.68.81.04,1.5-4.77-7.01-9.08-14.23-12.73-21.83-9.28-19.33-13.6-40.02-16.66-61.05-1.2-8.19-2.23-16.41-3.38-24.98Zm41.91-14.32c7.58,9.26,15.46,17.54,23.87,25.32,3.85,3.56,8.63,5.5,13.19,7.82,11.9,6.06,23.23,13,32.53,22.71,4.12,4.29,8.92,7.31,14.23,9.69,4.2,1.88,8.5,3.51,12.88,4.94,12.09,3.94,24.3,5.76,36.87,2.36,2.28-.62,4.66-.58,7.06-.31,3.92.44,7.79,1.37,11.77,1.14,4.85-.28,6.27-2.53,4.46-7.11-1.12-2.85-2.95-5.28-4.79-7.68-5.23-6.82-11.54-12.62-17.7-18.56-9.45-9.12-20.09-16.53-31.92-22.27-19.96-9.7-40.84-16.74-62.34-22.05-9.08-2.24-18.13-4.48-26.34-9.21-.62-.36-1.53-1.12-2.06-.21-.67,1.17-1.9,2.41-.91,3.93.49.75,1.3,1.29,1.98,1.92,13.93,12.9,29.68,23.07,46.8,31.17,12.98,6.14,26.45,11,40.22,15.07,1.26.37,2.73.44,4.01,2.18-1.46-.32-2.35-.47-3.22-.71-10.5-2.96-20.89-6.3-31.09-10.19-20.81-7.92-40.26-18.19-57.07-33.02-.99-.87-1.97-1.75-2.92-2.66-.84-.79-1.56-.81-2.3.14-1.81,2.31-4.27,3.85-7.22,5.6Zm-98.93-67.8c1.61-2.66,1.14-4.55-.14-6.69-3.04-5.08-6-10.23-8.63-15.53-4.42-8.9-9.88-17.08-16.04-24.83-2.46-3.09-4.98-6.13-7.37-9.28-8.7-11.46-15.04-24.08-18.4-38.12-.24-1.02-.9-2.05.17-3.28,1.59,4.6,3.25,9,5.23,13.29,5.83,12.63,13.64,24.02,21.97,35.08,8.26,10.96,15.77,22.39,21.53,34.89,1.13,2.46,2.21,4.95,3.36,7.53,1.46-1.36,2.52-2.78,3.94-3.57,2.17-1.21,1.97-2.58,1.26-4.55-1.75-4.84-3.91-9.5-6.26-14.06-5.41-10.49-8.93-21.64-11.39-33.13-3.25-15.19-8.38-29.58-17.19-42.55-9.02-13.29-17.67-26.83-25.71-40.74-2.91-5.03-6.34-9.7-10.64-13.66-1.85-1.7-3.8-3.25-6.16-4.2-4.35-1.74-7.23-.85-9.75,3.11-1.5,2.35-2.5,4.94-3.16,7.63-1.01,4.1-1.62,8.26-1.71,12.49-.39,17.95,3.16,35.08,10.87,51.28,3.33,7,6.94,13.85,13.41,18.72,2.5,1.88,4.62,4.32,6.65,6.74,6.42,7.67,12.91,15.31,19.01,23.23,8.12,10.54,16.26,21.05,25.2,30.91,2.99,3.3,6.09,6.5,9.96,9.28Zm-15.09,119.38c11.07-13.2,18.86-28.43,27.56-42.88-.6-1.06-1.3-1.41-1.98-1.82-2.8-1.67-2.84-1.7-4.64.9-1.8,2.6-3.68,5.12-5.81,7.47-4.64,5.12-10.22,9.08-15.78,13.08-7.82,5.61-15.41,11.5-22.09,18.46-4.93,5.14-10.22,9.9-15.93,14.15-6.39,4.76-11.79,10.49-16.85,16.58-10.27,12.36-14,26.91-13.75,42.6.1,6.25,2.21,8.02,8.47,8.61,10.07.95,19.73-.55,28.65-5.48,11.35-6.28,20.7-14.8,28.14-25.45,7.39-10.57,13.68-21.86,21.09-32.43,3.09-4.42,5.38-9.42,6.74-14.64,2.82-10.84,6.25-21.46,10.05-31.98,1.99-5.5,1.89-5.54-3.24-8.36-.1-.06-.26,0-.62,0-3.9,7.48-8.64,14.57-13.66,21.47-5.03,6.92-10.12,13.78-16.34,19.73Zm3.49-105.19c-1.94-.4-4.06-.24-6.12-.66-12.93-2.65-24.58-8.42-36.07-14.63-10.51-5.69-20.3-12.75-31.69-16.8-2.35-.83-4.6-1.96-6.85-3.04-10.81-5.17-21.79-9.91-33.23-13.54-9.42-2.99-18.87-5.78-28.8-6.51-4.86-.36-9.78-.95-14.56.08-3.84.83-7.58,2.14-11.49,2.76-1.75.28-3.31.97-3.59,3.08-.28,2.15,1.11,3,2.75,3.78,4.58,2.18,8.42,5.33,11.93,8.97,3.29,3.41,6.64,6.77,10.32,9.77,13.51,11.04,28.16,20.34,43.56,28.46,9.84,5.19,20.58,7.96,31.33,10.61,2.33.57,5.02.36,6.62,2.84.25.39,1.21.38,1.86.46,11.39,1.38,22.79,2.02,34.25.56,8.91-1.14,17.82-1.43,26.56,2.41.3-2.61,2.44-4.24,2.44-6.79,0-2.58-.24-3.03-2.76-3.22-9.05-.68-18.05-1.86-27.01-3.25-14.6-2.26-28.98-5.34-42.49-11.62-7.4-3.44-14.8-6.85-22.21-10.27-2.22-1.02-4.46-2.02-6.89-3.11,1.13-.71,1.77-.13,2.44.14,6.95,2.8,13.97,5.46,20.83,8.46,11.62,5.08,23.56,9,36.07,11.25,11.9,2.15,23.57,5.5,35.63,6.86,7.19.81,7.19.85,7.4-6.56,0-.11-.09-.22-.22-.51Zm2.15,45.59c-.22-.72-.37-1.22-.52-1.73-.86-2.81-.87-2.84-3.64-2.3-4.91.95-9.7,2.36-14.44,3.95-17.12,5.73-33.66,12.78-49.66,21.19-4.16,2.18-7.93,4.65-11.16,7.95-3.22,3.29-6.44,6.61-9.3,10.22-7.96,10.04-16.6,19.38-26.35,27.71-3.5,2.99-6.92,6.09-9.95,9.58-1.39,1.6-2.63,3.29-3.49,5.23-1.4,3.14-.99,4.23,2.28,5.3,2.99.99,6.11,1.63,9.08,2.66,11.58,4.01,22.8,2.92,33.74-2.25,5.35-2.53,10.72-5.05,15.92-7.87,8.7-4.7,17.18-9.95,24.38-16.67,7.67-7.17,14.96-14.82,21.7-22.93,6.64-7.99,12.81-16.41,20.59-23.39,3.42-3.06,6.88-6.08,10.35-9.15-1.69-2.47-3.81-2.7-6.48-1.6-4.08,1.68-8.21,3.26-12.29,5,3.52-3.57,8.43-4.78,12.59-7.32-1.53-2.16-3.16-1.06-4.72-.52-10,3.43-19.39,8.17-28.48,13.51-12.5,7.35-24.73,15.08-34.82,25.71-.48.5-.84,1.41-1.86,1.08,7.98-13.32,42.08-37.31,66.53-43.36Zm-2.86-7.03c-2.14-6.45-.77-5.6-6.67-5.45-12.65.32-25.17,1.86-37.45,5.05-7.89,2.05-15.81,4.02-23.89,5.16-11.45,1.62-22.92,3.13-34.38,4.66-.53.07-1.3.5-1.46-.64,1.83-.35,3.63-.75,5.44-1.04,13.25-2.08,26.52-4.15,39.44-7.85,12.58-3.6,25.32-5.97,38.44-6.31,5.65-.15,11.28-.79,16.93-1.11,1.51-.09,2.79-.55,2.82-2.1.06-2.78-1.15-5.35-1.84-8-.16-.61-1.13-.5-1.77-.57-6.28-.73-12.57-1.52-18.9-1.02-9.03.72-18.03-.47-27.1.06-9.03.53-18.15.33-27.24.33-13.57,0-26.23,3.57-38.26,9.73-7.68,3.93-14.57,8.95-21.08,14.53-4.7,4.03-9.91,6.87-16.23,7.42-1.94.17-3.85.84-5.74,1.4-1.26.37-2.68.88-2.89,2.36-.24,1.72,1.23,2.48,2.45,3.24,2.14,1.34,4.54,2.12,6.94,2.78,11.41,3.14,22.82,6.31,34.43,8.64,9.97,2,20.05,2.82,30.21,1.25,7.86-1.21,15.37-3.69,22.57-6.91,10.57-4.72,20.92-9.92,31.43-14.75,10.74-4.93,21.37-10.29,33.79-10.86Zm89.99-72.56c5.13.37,5.19.28,9.33,3.06,1.52,1.02,2.41.89,3.7-.33,4.35-4.1,8.15-8.54,10.67-14.05,4.49-9.81,9.15-19.55,13.72-29.32,8.33-17.78,20.5-32.4,36.26-44.05,1.49-1.1,2.89-2.3,3.91-3.87,4.64-7.16,7.92-14.84,8.76-23.43.72-7.34,1.62-14.64,3.78-21.74.99-3.27,1.78-6.6,1.92-10.06.27-6.59-.73-7.34-6.8-5.06-8.1,3.05-15.18,7.8-22.1,12.88-9.9,7.26-16.98,16.8-22.69,27.47-1.49,2.78-2.61,5.74-3.23,8.87-1.56,7.86-2.96,15.76-4.73,23.57-4.78,21.11-10.58,41.83-22.6,60.27-3.36,5.16-6.42,10.53-9.9,15.79Zm176.27,95.8c-2.41-1.05-2.41-1.03-4.6-.75-9.78,1.27-19.52,2.92-29.46,2.02-7.6-.69-15.17-1.66-22.72-2.73-5.79-.82-11.6-1.36-17.48-1.65.38.42.8.73,1.27.88,6.75,2.24,13.37,4.8,19.85,7.71,1.27.57,2.53.59,3.85.63,13.06.4,26.05-.46,38.94-2.61,3.57-.6,7.2-1.22,10.36-3.51Zm-279.16,22.58c3.43-2.56,6.81-5.19,10.3-7.66,6.03-4.28,11.53-9.13,16.5-14.59.89-.98,1.82-1.92,2.35-3.13.32-.73,1.33-1.43.23-2.39-.94-.81-1.79-.88-2.85-.23-1.91,1.17-3.67,2.54-5.33,4.04-7.93,7.15-14.83,15.25-21.21,23.97Zm187.51-76.38c-13.43,1.12-27.02,1.01-40.09,4.95,13.67.77,26.99-1.21,40.09-4.95Zm-147.08,84.48c.24.15.48.31.72.46.98-1.98,2.02-3.93,2.91-5.95.85-1.92,1.61-3.89,2.31-5.87.75-2.1,1.42-4.24,2.09-6.37q1.35-4.3.73-6.54c-3.36,8.27-6.39,16.15-8.78,24.27Zm100.62-239.06c-.14.47.24.65.5.9.15-.2.35-.38.45-.6.14-.34.21-.75-.26-.88-.42-.11-.59.23-.68.58Zm64.62,268.44c-.09-.1-.17-.19-.25-.27-.08.17-.2.33-.24.5-.01.06.14.17.22.25.09-.16.18-.32.27-.48Zm-252.05,4.05c-.09-.09-.2-.26-.26-.25-.19.04-.35.16-.53.25.09.09.19.26.26.25.19-.04.35-.16.53-.25Zm192.18,24.62c.11.11.19.19.28.28.09-.18.21-.34.25-.53.01-.06-.16-.17-.25-.26-.09.17-.19.34-.28.51Z"/>
      <path class="cls-1" d="m267.49,267.27c-1.17.93-2.44.51-3.5,1.28-2.36,1.71-2.48,1.57-3.78-1.15-.85-1.78-1.57-3.62-3.11-4.97-2.33-2.05-3.71-2.02-5.36.63-1.44,2.31-4.19,3.07-5.59,5.42-.62,1.03-1.86.27-2.83-.22-4.19-2.13-7.42-.45-8.17,4.2-.23,1.46.17,3.04-1.05,5.18-.85-4.74-.81-8.41,2.31-11.49,1.3-1.28,3.05-2.21,4.59-1.87,4.43.97,7.35-1.25,10.24-3.96,1.75-1.65,5.24-1.68,7.29-.12,1.05.79,1.99,1.73,2.63,2.9.77,1.4,1.35,2.73,3.54,2.06.96-.29,2.22.59,2.78,2.13Z"/>
      <path class="cls-1" d="m203.13,276.29c-1.72-4.28-2.63-8.19-1.06-12.34,1.4-3.71,5.48-4.45,8.08-1.43.67.78,1.15,1.76,1.56,2.72.57,1.36,1.34,2.13,2.96,1.87,1.79-.29,3.01.8,3.94,2.14,1.01,1.46,1.58,3.23,3.79,3.51.78.1.66,1.07.07,1.54-1.2.94-2.39,1.01-3.42-.32-.72-.93-1.32-1.98-2.17-2.78-1.9-1.79-3.34-1.29-3.84,1.2-.19.96.3,2.06-.9,3.29-1.04-2.57-1.96-4.93-2.95-7.27-.56-1.33-1.06-2.71-1.85-3.91-1.37-2.09-3.05-1.87-4.05.49-1.02,2.41-.65,4.91-.24,7.38.19,1.15.77,2.24.07,3.9Z"/>
      <path class="cls-1" d="m245.6,252.87c-1.36-4.54-2.55-9.08-1.16-13.76,1.29-4.35,4.69-5.32,8.12-2.39.99.85,1.81,1.91,2.67,2.9.91,1.04.87,3.11,3.33,2.36,1.29-.39,2.93.52,4.21-1.58.07,2.58-.49,3.89-2.6,3.8-1.54-.07-2.39.49-2.93,1.99-.53,1.47-1.55,1.17-2.33.09-.45-.63-.75-1.39-1.1-2.09-.48-.94-.84-1.95-1.44-2.81-.88-1.27-1.72-3-3.57-2.62-1.68.35-1.56,2.18-2,3.53-1.12,3.46-.23,7.07-1.21,10.56Z"/>
      <path class="cls-1" d="m190.3,228.47c-.49-3.74-.34-6.54,1.17-9.2,1.55-2.72,3.79-3.87,6.88-3.51,3.29.38,4.89-1.5,4.08-4.8-.34-1.4-.81-2.78-1.06-4.2-.38-2.17.18-4.18,1.43-5.98.4-.59,1-.93,1.69-.62.72.33.75,1,.5,1.67-.32.86-.68,1.71-1.01,2.57-.68,1.78-.93,3.7-.32,5.42.91,2.6,2.36,4.91-.67,7.25-1.21.94.47,3.05-.59,4.33-.57.29-.85,0-1.15-.26-3.9-3.37-6.15-2.88-8.54,1.66-.83,1.59-.72,3.54-2.42,5.65Z"/>
      <path class="cls-1" d="m222.26,208.64c-1.72-5.59-.88-8.18,3.01-10.3.83-.45,1.16-.91,1.22-1.75.06-.78.07-1.59.28-2.34.55-1.98,1.59-3.75,3.63-4.35,2.15-.63,3.86.62,5.11,2.22,1.08,1.38,2.19,2.49,3.95,2.94.86.22,1.7.76,1.65,2.17-1.41.03-3-1.18-4.29.44-.61.76-1.49.24-1.97-.47-.66-.97-1.17-2.06-1.84-3.03-.61-.88-1.36-1.66-2.6-1.37-1.04.24-1.43,1.05-1.65,1.99-.15.64-.51,1.27-.5,1.9.06,2.28-.24,4.05-3.11,4.45-1.09.15-1.48,1.73-1.79,2.89-.33,1.25-.61,2.52-1.1,4.61Z"/>
      <path class="cls-1" d="m271.5,218.81c-2.05-2.25-1.92-4.82-1.24-7.36.49-1.82,1.89-2.81,3.81-2.84,1.16-.02,1.76-.42,2.41-1.5,1.67-2.8,3.83-3.11,6.55-1.28,3.14,2.12,4.68,6.98,3.47,11.17-1.57-.49-1.48-2-1.89-3.11-.88-2.38-2.11-4.52-4.03-6.18-1.4-1.22-2.19-1.04-2.82.78-.65,1.9-1.47,3.19-3.76,3.33-1.62.1-2.37,1.53-2.48,3.1-.09,1.29-.02,2.6-.02,3.89Z"/>
      <path class="cls-1" d="m220.41,224.55c-3.3-6.08-.84-10.42,5.35-10.46,1.49,0,2.77-.11,3.95-1.22,1.6-1.52,3.56-1.37,5.52-.67,1.21.43,2.23,1.37,3.67,1.19.87-.11,1.67.19,1.25,1.3-.33.86-.97,1.7-2.05,1.41-.58-.15-1.01-.78-1.54-1.15-2.34-1.59-4.24-1.48-5.65.86-1.14,1.89-2.07,2.16-4.06,1.26-2.52-1.13-4.25-.2-5.17,2.41-.51,1.46-.76,3-1.27,5.07Z"/>
      <path class="cls-1" d="m229.07,234.95c-.88.32-1.11.45-1.36.49-2.2.32-6.56-.21-8.89-1.17-1.82-.75-3.35-.46-4.62,1.01-1.01,1.17-1.95,2.4-2.97,3.66-.89-3.15-.23-5.41,2.02-7.18,1.9-1.5,4.97-1.56,7.34.17,1.42,1.04,2.43,1.98,4.43.95,1.51-.77,2.86.37,4.05,2.07Z"/>
      <path class="cls-1" d="m291.72,250.86c-3.44.41-4.27,2.29-4.4,4.7-.05,1.05-.06,2.1-.15,3.14-.05.7-.5,1.57-1.09,1.42-3.17-.83-2.68,1.38-2.8,3.16-.04.6.16,1.34-.89,1.76-1.45-1.12-1.44-2.8-1.5-4.46-.06-1.82.19-3.42,2.37-3.93.97-.23.83-1.18,1.04-1.91.28-1.01.52-2.06,1-2.97,1.27-2.43,3.12-2.83,6.41-.91Z"/>
      <path class="cls-1" d="m258.02,221.84c-.86-3.06-.12-5.43,1.9-6.53,1.82-.99,4.19-.41,5.97,1.49.44.47.97.96,1.18,1.54.48,1.29,1.94,3.03.81,3.89-1.47,1.11-2.05-1.29-3.14-1.99-.32-.21-.54-.57-.82-.83-2.07-1.91-2.92-1.77-4.53.71-.35.53-.41,1.26-1.36,1.73Z"/>
      <path class="cls-1" d="m280.76,254.14c-1.68-1.46-2.2-3.29-3.23-4.73-2.69-3.73-3.37-3.81-6.24-.26-.16-2.47.72-4.18,2.47-4.81,1.62-.59,4.08.12,5.29,1.75,1.68,2.25,2.55,4.75,1.71,8.05Z"/>
      <path class="cls-1" d="m257.55,199.69c1.24-4.89,3.88-6.09,7.35-3.61,1.23.88,2.29,1.58,3.87,1.48,1.36-.08,2.55.44,3.08,2.05-1.65.65-3.42.08-5.01.87-1.12.55-1.85-.62-2.62-1.31-3.19-2.87-3.43-2.86-6.68.52Z"/>
      <path class="cls-1" d="m285.34,225.69c-.17-.59-.35-.95-.37-1.32-.19-3.27.64-5.05,2.53-5.45,2.04-.44,4.49,1.53,5.25,4.32.19.68.47,1.51-.31,2.18-1.21-.31-1.71-1.48-2.57-2.23-1.83-1.6-2.35-1.51-3.28.75-.23.56-.14,1.29-1.25,1.74Z"/>
      <path class="cls-1" d="m254.44,194.23c-1.98-1.34-3.81-2.89-6.74-2.31,1.14-2.69,3-2.52,4.74-2.13,1.8.4,2.34,1.75,2,4.44Z"/>
      <path class="cls-1" d="m217.94,151.83c-1.71-5.24-1.89-10.61-2.47-15.93-1.65-15.3-3.16-30.62-7.17-45.55-1.46-5.46-3.38-10.77-5.19-16.11-.21-.62-.51-1.21-.21-2.17.9.72,1.02,1.74,1.32,2.56,3.41,9.26,6.4,18.64,8.46,28.3,3.15,14.78,5.85,29.6,5.26,44.82-.05,1.36,0,2.72,0,4.08Z"/>
      <path class="cls-1" d="m317.45,167.64c14.09-8.75,25.34-20.79,37.51-32.34-1.2,6.67-27.21,29.16-37.51,32.34Z"/>
      <path class="cls-1" d="m432.25,227.68c-2.26,1.51-4.28,1.24-6.22,1.36-7.99.51-15.99.89-23.98,1.49-8.66.65-17.1,2.68-25.57,4.44-.5.1-1,.17-1.69.29,2.15-2.23,15.72-6.3,27.82-7.9,9.69-1.28,19.47-2.2,29.64.32Z"/>
      <path class="cls-1" d="m413.8,247.32c.81.11,1.81-.41,2.32.7-.76.04-1.52.09-2.28.13-.01-.28-.02-.56-.03-.84Z"/>
      <path class="cls-1" d="m73.13,138.24c17.4,18.79,37.23,34.66,58.57,48.72-23.31-11.64-43.61-27.02-59.52-47.88.17-.44.46-.75.95-.84Z"/>
      <path class="cls-1" d="m194.88,376.87c-.22-3.06.67-5.91,1.18-8.77,2.26-12.76,6.67-24.84,11.88-36.65,4.03-9.13,8.46-18.11,10.84-27.89.84-3.45,1.66-6.89,1.45-10.93,1.22,1.04.98,2.09.92,3.02-.83,12.76-4.29,24.81-9.93,36.26-2.55,5.19-5.15,10.36-7.58,15.61-4.17,9.02-6.3,18.64-8.03,28.36-.06.34.03.77-.74.99Z"/>
      <path class="cls-1" d="m230.72,321.5c3.92,19.72.65,38.84-8.09,47.36,2.84-7.56,5.76-15.08,7.05-23.11,1.3-8.09.63-16.23,1.04-24.25Z"/>
      <path class="cls-1" d="m307.62,110.55c3.76-17.76,12.1-33.04,24.34-46.22-9.1,14.9-18.71,29.53-24.34,46.22Z"/>
    </g>
  </g>
</svg>